:version 1.10
:name ASF
:units
  mass 1
  length 1
  angle deg
:documentation
  ASF file generated by Kaydara
:root
  axis xyz
  order  tx ty tz rx ry rz
  position 0 0 0
  orientation 0 0 0
:bonedata
  begin
    id 1
    name RightUpLegDummy
    direction -1 2.30186e-007 8.31532e-007
    length 4.46685
    axis 0 0 0 xyz
  end
  begin
    id 2
    name RightUpLeg
    direction -2.30187e-007 -1 1.24343e-010
    length 16.4045
    axis -3.49089 -0.000906625 0.000286804 xyz
    dof rx ry rz
  end
  begin
    id 3
    name RightLeg
    direction -2.30181e-007 -1 -4.17157e-009
    length 17.5097
    axis 3.68512 0.0193738 -0.131023 xyz
    dof rx ry rz
  end
  begin
    id 4
    name RightFoot
    direction 8.31421e-007 -4.51202e-011 1
    length 6.49508
    axis 4.81691e-005 -0.120479 -0.188788 xyz
    dof rx ry rz
  end
  begin
    id 5
    name RightToes
    direction 0.00124746 -0.014064 0.9999
    length 3.85082
    axis 0.000481921 0.542163 -0.142578 xyz
    dof rx ry rz
  end
  begin
    id 6
    name SpineDummy
    direction 0.0717043 0.9409 -0.331007
    length 10.0032
    axis 0 0 0 xyz
  end
  begin
    id 7
    name Spine
    direction 2.30186e-007 1 4.58806e-011
    length 9.84055
    axis -0.001389 0.000121418 2.40972e-006 xyz
    dof rx ry rz
  end
  begin
    id 8
    name Spine1
    direction 0 0 0
    length 0
    axis -0.001389 0.000121451 1.30017e-006 xyz
    dof rx ry rz
  end
  begin
    id 9
    name HEadDummy
    direction -0.00347485 0.950688 -0.310128
    length 8.00997
    axis -0.001389 0.000121451 1.30017e-006 xyz
  end
  begin
    id 10
    name HEad
    direction -0.0222688 0.980941 0.193023
    length 5.12695
    axis -0.001389 0.000121451 1.30017e-006 xyz
    dof rx ry rz
  end
  begin
    id 11
    name LeftShoulder1Dummy
    direction 0.988871 0.146793 -0.0242004
    length 3.5792
    axis -0.001389 0.000121451 1.30017e-006 xyz
  end
  begin
    id 12
    name LeftShoulder1
    direction 0.993832 0.108932 0.020779
    length 4.16823
    axis -0.001389 0.000121451 1.30017e-006 xyz
    dof rx ry rz
  end
  begin
    id 13
    name LeftArm
    direction 1 3.44807e-006 -8.31404e-007
    length 9.91437
    axis -23.1894 0.134784 0.967509 xyz
    dof rx ry rz
  end
  begin
    id 14
    name LeftForeArm
    direction 1 3.44842e-006 -8.31581e-007
    length 9.08575
    axis -9.91835 -0.06569 -0.177793 xyz
    dof rx ry rz
  end
  begin
    id 15
    name LeftHand
    direction 0.992938 -0.0411636 0.11126
    length 5.32135
    axis -0.00960232 -0.00340091 0.185173 xyz
    dof rx ry rz
  end
  begin
    id 16
    name RightShoulderDummy
    direction -0.988871 0.146793 -0.0241962
    length 3.5792
    axis -0.001389 0.000121451 1.30017e-006 xyz
  end
  begin
    id 17
    name RightShoulder
    direction -0.993832 0.108933 0.0207785
    length 4.16823
    axis 0.215806 0.000203643 -0.0068026 xyz
    dof rx ry rz
  end
  begin
    id 18
    name RightArm
    direction -1 3.90912e-006 8.31284e-007
    length 9.91437
    axis -23.2009 -0.134239 -0.964101 xyz
    dof rx ry rz
  end
  begin
    id 19
    name RightForeArm
    direction -1 3.90882e-006 8.31502e-007
    length 9.08575
    axis -9.92322 0.0658061 0.178867 xyz
    dof rx ry rz
  end
  begin
    id 20
    name RightHand
    direction -0.992843 -0.0414603 0.112003
    length 5.28593
    axis -0.00960638 0.00330671 -0.185228 xyz
    dof rx ry rz
  end
  begin
    id 21
    name LeftUpLegDummy
    direction 1 -2.30186e-007 -8.31532e-007
    length 4.46685
    axis 0 0 0 xyz
  end
  begin
    id 22
    name LeftUpLeg
    direction -2.30187e-007 -1 6.00931e-010
    length 16.4045
    axis -3.48766 0.00143442 -0.000524262 xyz
    dof rx ry rz
  end
  begin
    id 23
    name LeftLeg
    direction -2.30187e-007 -1 1.6669e-009
    length 17.5097
    axis 3.68178 -0.00654042 -0.000285133 xyz
    dof rx ry rz
  end
  begin
    id 24
    name LeftFoot
    direction 8.31532e-007 -4.54478e-011 1
    length 6.49508
    axis 1.87233e-006 4.66016e-005 -8.6538e-006 xyz
    dof rx ry rz
  end
  begin
    id 25
    name LeftToes
    direction 0.00818058 -0.00485161 0.999955
    length 3.85048
    axis 1.06247e-005 4.65869e-005 -8.65513e-006 xyz
    dof rx ry rz
  end
:hierarchy
  begin
    root RightUpLegDummy SpineDummy LeftUpLegDummy
    RightUpLegDummy RightUpLeg
    RightUpLeg RightLeg
    RightLeg RightFoot
    RightFoot RightToes
    SpineDummy Spine
    Spine Spine1
    Spine1 HEadDummy LeftShoulder1Dummy RightShoulderDummy
    HEadDummy HEad
    LeftShoulder1Dummy LeftShoulder1
    LeftShoulder1 LeftArm
    LeftArm LeftForeArm
    LeftForeArm LeftHand
    RightShoulderDummy RightShoulder
    RightShoulder RightArm
    RightArm RightForeArm
    RightForeArm RightHand
    LeftUpLegDummy LeftUpLeg
    LeftUpLeg LeftLeg
    LeftLeg LeftFoot
    LeftFoot LeftToes
  end

:SAMPLES-PER-SECOND 30
:FULLY-SPECIFIED
:DEGREES
127
root  -81.9615 28.5459 -16.1651 169.52 88.2478 147.212
RightUpLeg  -53.8916 -25.4004 6.70254
RightLeg  70.206 -4.59943 -10.6195
RightFoot  -27.0887 1.32072 5.85627
RightToes  -22.2547 -0.0943809 -0.194698
Spine  16.1916 2.58796 0.258279
Spine1  25.2352 8.37228 -3.35886
HEad  6.82519 -11.0438 13.3773
LeftShoulder1  0 -2.42657e-020 -4.95415e-022
LeftArm  -21.1408 -23.1997 -98.0977
LeftForeArm  31.0353 -23.2864 -4.34261
LeftHand  0.108382 -6.90089 -2.16952
RightShoulder  0 2.42657e-020 1.07489e-018
RightArm  -44.5031 45.6322 76.2449
RightForeArm  67.8967 8.15872 1.38737
RightHand  0.38429 26.7722 1.98518
LeftUpLeg  -50.7196 -1.30228 4.07176
LeftLeg  67.7835 -2.8499 -5.86103
LeftFoot  -25.5698 0.567795 2.50183
LeftToes  -28.0119 1.71452e-006 7.46813e-008
128
root  -82.4421 27.8065 -15.9112 -177.301 85.6272 159.331
RightUpLeg  -57.904 -24.8435 7.4755
RightLeg  75.0695 -4.48034 -13.2811
RightFoot  -29.2917 1.87868 7.55774
RightToes  -19.0763 -0.0763693 -0.169354
Spine  17.3616 3.30788 -1.10432
Spine1  26.4807 9.52212 -3.88773
HEad  2.21093 -16.4183 19.8081
LeftShoulder1  0 -2.42657e-020 -4.95415e-022
LeftArm  -20.9859 -28.3711 -98.8224
LeftForeArm  30.8109 -22.1915 -4.11528
LeftHand  0.18269 -6.50969 -3.5854
RightShoulder  0 2.42657e-020 1.07489e-018
RightArm  -46.0132 50.9821 74.0034
RightForeArm  73.857 -0.204823 -0.10297
RightHand  1.56612 19.2108 9.60789
LeftUpLeg  -55.2259 -2.68198 4.56161
LeftLeg  71.5559 -2.44316 -6.00228
LeftFoot  -26.9462 0.628107 2.62123
LeftToes  -24.8975 1.71452e-006 7.46813e-008
129
root  -82.7765 27.3512 -15.57 -167.567 82.8091 168.431
RightUpLeg  -60.2838 -24.6293 8.74169
RightLeg  77.9644 -4.13498 -14.651
RightFoot  -30.7493 2.25744 8.57458
RightToes  -14.6002 -0.053446 -0.132053
Spine  18.0324 3.22161 -2.01525
Spine1  27.3713 9.00995 -4.21201
HEad  -0.992082 -18.7862 24.5046
LeftShoulder1  0 -2.42657e-020 -4.95415e-022
LeftArm  -24.0183 -31.9907 -98.2221
LeftForeArm  35.4192 -21.5239 -3.97491
LeftHand  0.24317 -7.02624 -4.33357
RightShoulder  0 2.42657e-020 1.07489e-018
RightArm  -21.6353 51.0116 77.7429
RightForeArm  57.192 2.91955 0.484279
RightHand  1.44962 12.2078 13.871
LeftUpLeg  -58.7875 -4.16889 6.22023
LeftLeg  74.2966 -2.42756 -6.88357
LeftFoot  -26.6706 0.701614 2.95925
LeftToes  -26.8753 1.71452e-006 7.46813e-008
130
root  -82.9704 27.1997 -15.1174 -160.017 81.2195 175.635
RightUpLeg  -60.7708 -22.6314 9.03695
RightLeg  79.174 -3.50892 -13.6247
RightFoot  -30.3673 2.04508 7.90336
RightToes  -16.0003 -0.0603022 -0.143911
Spine  18.494 3.24412 -2.95338
Spine1  28.1157 9.07003 -5.35731
HEad  -3.00879 -19.123 28.0345
LeftShoulder1  0 -2.42657e-020 -4.95415e-022
LeftArm  -25.2437 -34.5273 -95.4192
LeftForeArm  34.7542 -22.2904 -4.13277
LeftHand  0.337798 -6.87902 -5.99182
RightShoulder  0 2.42657e-020 1.07489e-018
RightArm  -32.9018 52.8826 84.1954
RightForeArm  71.8803 0.2557 -0.0170825
RightHand  0.704268 10.5434 7.99652
LeftUpLeg  -60.6359 -3.94231 8.07307
LeftLeg  75.2606 -2.61899 -7.83237
LeftFoot  -26.0741 0.766315 3.30863
LeftToes  -28.9096 1.71452e-006 7.46813e-008
131
root  -83.0592 27.3738 -14.6539 -153.706 79.9446 -178.274
RightUpLeg  -59.8298 -21.1923 8.18422
RightLeg  78.8031 -1.94748 -7.61604
RightFoot  -28.2582 1.02967 4.46652
RightToes  -22.3375 -0.0948688 -0.195345
Spine  18.6117 3.11449 -3.63453
Spine1  28.4405 8.89053 -6.50183
HEad  -4.19318 -18.7924 30.7412
LeftShoulder1  0 -2.42657e-020 -4.95415e-022
LeftArm  -25.1168 -35.4026 -91.2398
LeftForeArm  33.1478 -24.6514 -4.63027
LeftHand  0.55587 -7.28944 -9.08841
RightShoulder  0 2.42657e-020 1.07489e-018
RightArm  -31.1075 50.7581 90.7165
RightForeArm  73.1133 2.9483 0.451356
RightHand  0.306092 14.26 2.81792
LeftUpLeg  -61.2498 -4.42209 10.216
LeftLeg  74.5605 -2.57689 -7.40877
LeftFoot  -24.8868 0.653297 2.96004
LeftToes  -30.3961 1.71452e-006 7.46813e-008
132
root  -83.1171 27.8496 -14.161 -149.172 78.8207 -174.234
RightUpLeg  -58.0946 -20.1707 6.26122
RightLeg  76.9225 0.865761 2.58658
RightFoot  -25.0505 -0.14841 -0.290494
RightToes  -31.3068 -0.153023 -0.260945
Spine  18.1176 3.14102 -3.94239
Spine1  27.9029 9.12065 -7.53227
HEad  -5.07288 -18.6306 32.6652
LeftShoulder1  0 -2.42657e-020 -4.95415e-022
LeftArm  -24.2124 -33.3308 -87.7291
LeftForeArm  35.6442 -29.4671 -5.7053
LeftHand  0.489515 -7.75586 -7.58867
RightShoulder  0 2.42657e-020 1.07489e-018
RightArm  -34.6373 48.287 94.9367
RightForeArm  73.2627 3.32915 0.517842
RightHand  -0.687832 18.4951 -3.85404
LeftUpLeg  -61.1406 -4.56096 11.962
LeftLeg  72.1476 -2.61398 -6.6103
LeftFoot  -22.8825 0.486481 2.4034
LeftToes  -31.3211 1.71452e-006 7.46813e-008
133
root  -83.094 28.4633 -13.6641 -146.054 78.1923 -171.583
RightUpLeg  -55.0625 -18.7185 3.31335
RightLeg  73.727 4.1862 11.1588
RightFoot  -23.3024 -0.838805 -3.68881
RightToes  -45.4955 -0.263804 -0.344015
Spine  17.3045 3.63804 -4.3058
Spine1  26.8657 10.3251 -8.79115
HEad  -6.4518 -19.2286 33.8331
LeftShoulder1  0 -2.42657e-020 -4.95415e-022
LeftArm  -31.4439 -30.3352 -84.9395
LeftForeArm  30.9663 -35.0882 -7.11012
LeftHand  0.562126 -8.0833 -8.32003
RightShoulder  0 2.42657e-020 1.07489e-018
RightArm  -38.0943 43.9351 97.1545
RightForeArm  66.8 5.86457 0.981711
RightHand  -1.17841 19.9678 -6.31869
LeftUpLeg  -60.0681 -3.49491 12.7768
LeftLeg  68.6853 -2.69127 -5.76571
LeftFoot  -20.5761 0.349399 1.92472
LeftToes  -32.1791 1.71452e-006 7.46813e-008
134
root  -82.9891 29.0295 -13.1331 -145.696 77.2472 -171.358
RightUpLeg  -50.8827 -17.7006 -0.0475868
RightLeg  69.9223 3.52792 7.79421
RightFoot  -23.6346 -0.546868 -2.23586
RightToes  -43.1575 -0.244185 -0.332255
Spine  16.7907 3.95089 -4.48545
Spine1  26.3516 10.9454 -9.21564
HEad  -8.4614 -20.0578 35.6363
LeftShoulder1  0 -2.42657e-020 -4.95415e-022
LeftArm  -32.4122 -30.1239 -81.1121
LeftForeArm  30.3424 -37.8003 -7.85894
LeftHand  0.848778 -8.27045 -12.0792
RightShoulder  0 2.42657e-020 1.07489e-018
RightArm  -43.2802 40.3274 98.4857
RightForeArm  63.0561 7.85023 1.34391
RightHand  -1.17519 20.3847 -6.1615
LeftUpLeg  -58.5859 -2.54294 13.1415
LeftLeg  65.1317 -2.71419 -4.9869
LeftFoot  -18.3169 0.240145 1.48946
LeftToes  -32.3559 1.71452e-006 7.46813e-008
135
root  -82.8424 29.4396 -12.5953 -147.742 75.9025 -173.234
RightUpLeg  -46.052 -16.6848 -4.01579
RightLeg  66.3169 -0.138928 -0.40038
RightFoot  -22.6972 0.218603 1.46675
RightToes  -33.2105 -0.166642 -0.273649
Spine  16.4903 3.91019 -4.23023
Spine1  26.2189 10.5996 -8.42759
HEad  -10.1187 -21.7662 37.1423
LeftShoulder1  0 -2.42657e-020 -4.95415e-022
LeftArm  -30.8258 -29.8951 -79.4186
LeftForeArm  31.1573 -40.2212 -8.5763
LeftHand  0.931139 -8.16729 -13.3678
RightShoulder  0 2.42657e-020 1.07489e-018
RightArm  -47.3572 37.3381 98.2053
RightForeArm  59.5879 8.58333 1.483
RightHand  -1.14324 21.5601 -5.63077
LeftUpLeg  -57.1439 -2.56393 13.6314
LeftLeg  62.0019 -2.89001 -4.68194
LeftFoot  -16.2447 0.172071 1.20561
LeftToes  -33.5082 1.71452e-006 7.46813e-008
136
root  -82.6617 29.6726 -12.0623 -150.564 74.0675 -175.624
RightUpLeg  -40.7796 -16.3648 -8.06486
RightLeg  62.4648 -3.39949 -5.68768
RightFoot  -20.6941 0.616638 3.75411
RightToes  -26.9318 -0.123374 -0.230086
Spine  16.4814 3.6071 -3.69769
Spine1  26.4709 9.78542 -7.28371
HEad  -11.2568 -23.372 38.4685
LeftShoulder1  0 -2.42657e-020 -4.95415e-022
LeftArm  -28.7875 -29.7884 -80.4962
LeftForeArm  30.8039 -43.63 -9.68314
LeftHand  0.975834 -8.21147 -13.9131
RightShoulder  0 2.42657e-020 1.07489e-018
RightArm  -49.5428 34.9019 97.1747
RightForeArm  57.1085 9.19314 1.59787
RightHand  -0.960747 22.7136 -4.41191
LeftUpLeg  -55.9374 -3.39633 14.4255
LeftLeg  59.5542 -3.25727 -4.8025
LeftFoot  -14.7475 0.135527 1.04722
LeftToes  -35.0225 1.71452e-006 7.46813e-008
137
root  -82.5314 29.737 -11.4373 -151.42 72.9518 -176.303
RightUpLeg  -36.7488 -16.0752 -11.5224
RightLeg  58.1681 -4.94214 -6.95669
RightFoot  -20.2327 0.720545 4.41453
RightToes  -25.3323 -0.113135 -0.218252
Spine  16.3001 3.44679 -3.12725
Spine1  26.3824 9.2204 -6.08907
HEad  -11.7755 -24.4012 39.3451
LeftShoulder1  0 -2.42657e-020 -4.95415e-022
LeftArm  -25.1113 -30.2252 -82.6243
LeftForeArm  33.2155 -46.2818 -10.6367
LeftHand  0.857335 -8.46435 -11.9262
RightShoulder  0 2.42657e-020 1.07489e-018
RightArm  -48.8897 32.4801 96.073
RightForeArm  52.176 10.6241 1.86635
RightHand  -0.89125 22.2656 -4.1579
LeftUpLeg  -55.4281 -2.95863 15.4556
LeftLeg  58.1545 -4.20465 -5.87271
LeftFoot  -13.6485 0.136512 1.14068
LeftToes  -37.1488 1.71452e-006 7.46813e-008
138
root  -82.454 29.6436 -10.8209 -152.309 72.9973 -176.941
RightUpLeg  -34.286 -16.8909 -14.9496
RightLeg  54.3331 -5.15893 -6.31596
RightFoot  -18.6086 0.616143 4.13717
RightToes  -26.5505 -0.120903 -0.22729
Spine  16.3861 3.30364 -2.80116
Spine1  26.6592 8.7241 -5.34666
HEad  -12.534 -24.1739 39.5737
LeftShoulder1  0 -2.42657e-020 -4.95415e-022
LeftArm  -21.8953 -31.4226 -84.9771
LeftForeArm  37.1191 -48.5155 -11.5157
LeftHand  0.815284 -9.06679 -10.6333
RightShoulder  0 2.42657e-020 1.07489e-018
RightArm  -49.7348 31.5521 95.4051
RightForeArm  50.1643 11.5175 2.03289
RightHand  -0.92111 21.2103 -4.54787
LeftUpLeg  -55.0896 -1.79118 15.9557
LeftLeg  57.8474 -4.64384 -6.40659
LeftFoot  -13.041 0.123194 1.07779
LeftToes  -38.8939 1.71452e-006 7.46813e-008
139
root  -82.432 29.3704 -10.0978 -151.06 74.1623 -175.51
RightUpLeg  -34.2294 -17.9835 -17.3582
RightLeg  52.2922 -5.68657 -6.4647
RightFoot  -14.6688 0.446127 3.84274
RightToes  -28.6128 -0.134486 -0.24221
Spine  16.5277 3.23417 -2.48634
Spine1  26.913 8.33487 -4.61968
HEad  -12.4519 -23.3096 38.2704
LeftShoulder1  0 -2.42657e-020 -4.95415e-022
LeftArm  -18.2894 -32.7235 -86.8894
LeftForeArm  41.0434 -50.2729 -12.2643
LeftHand  0.696604 -9.11329 -9.10073
RightShoulder  0 2.42657e-020 1.07489e-018
RightArm  -52.6051 31.6326 94.5736
RightForeArm  46.3959 11.7048 2.07328
RightHand  -0.945222 21.9776 -4.49627
LeftUpLeg  -55.0711 0.398982 16.972
LeftLeg  58.6315 -4.98924 -7.07696
LeftFoot  -13.1138 0.120618 1.04935
LeftToes  -41.0652 1.71452e-006 7.46813e-008
